<svg xmlns="http://www.w3.org/2000/svg" width="1920" height="642" viewBox="0 0 1920 642" version="1.1"><path d="M 120.500 289.403 C 103.352 292.737, 91.881 298.886, 79.470 311.397 C 69.634 321.312, 64.154 330.339, 59.980 343.500 C 56.603 354.147, 56.070 374.518, 58.863 386.209 C 67.613 422.839, 97.106 446, 135 446 C 149.515 446, 158.848 443.817, 172 437.345 C 180.023 433.397, 182.906 431.258, 190.540 423.585 C 200.393 413.683, 205.959 404.511, 209.875 391.726 C 219.471 360.395, 209.706 325.893, 185.590 305.925 C 178.295 299.885, 163.969 292.665, 155 290.508 C 145.758 288.286, 129.008 287.749, 120.500 289.403" stroke="none" fill="#eb433c" fill-rule="evenodd"/><path d="M 213 213.559 L 213 293.119 206.989 285.647 C 193.508 268.889, 174.554 257.629, 151.975 252.966 C 142.995 251.112, 139.359 250.878, 126.500 251.329 C 106.475 252.032, 95.579 254.897, 78 264.083 C 56.829 275.145, 37.807 295.990, 27.908 318.976 C 16.545 345.360, 14.960 376.749, 23.605 404.156 C 36.011 443.482, 68.533 473.347, 108 481.657 C 119.418 484.062, 143.026 484.047, 155.374 481.628 C 203.740 472.152, 235.055 442.597, 249.279 393 C 251.421 385.531, 251.431 384.988, 251.741 259.750 L 252.052 134 232.526 134 L 213 134 213 213.559 M 567 306 L 567 478 586.500 478 L 606 478 606 306 L 606 134 586.500 134 L 567 134 567 306 M 391.500 252.541 C 366.449 257.189, 345.553 268.211, 329.249 285.374 C 320.534 294.549, 315.148 302.421, 309.472 314.280 C 301.412 331.119, 298 347.064, 298 367.896 C 298 427.394, 335.909 472.345, 394.423 482.231 C 406.425 484.259, 430.811 483.695, 443 481.108 C 470.990 475.167, 493.900 460.710, 510.363 438.598 C 514.673 432.809, 516.380 434.613, 495.581 422.973 L 480.661 414.624 479.158 417.062 C 475.521 422.958, 463.209 433.668, 455.398 437.732 C 442.508 444.438, 433.981 446.398, 417.500 446.444 C 397.318 446.500, 383.843 442.984, 369.486 433.917 C 361.511 428.880, 351.231 418.032, 346.661 409.831 C 343.193 403.609, 338 389.663, 338 386.574 C 338 385.153, 347.012 385, 430.420 385 L 522.841 385 523.562 378.270 C 524.576 368.802, 523.369 350.045, 521.100 340 C 511.247 296.383, 481.800 264.785, 440.974 254.021 C 429.826 251.082, 403.591 250.297, 391.500 252.541 M 748.500 252.039 C 701.413 259.371, 664.850 294.710, 654.387 343 C 651.839 354.760, 651.819 380.155, 654.348 391.796 C 659.632 416.116, 669.924 435.146, 686.919 452.020 C 712.441 477.362, 747.600 488.464, 783.074 482.384 C 807.785 478.149, 827.462 466.538, 842.790 447.147 L 847 441.820 847 459.910 L 847 478 866.500 478 L 886 478 886 367.500 L 886 257 866.500 257 L 847 257 846.968 275.250 L 846.937 293.500 844.762 290.500 C 840.139 284.123, 827.197 271.628, 820.817 267.382 C 805.172 256.971, 788.890 252.070, 768 251.484 C 760.575 251.275, 751.800 251.525, 748.500 252.039 M 1356.500 252.522 C 1308.717 261.340, 1272.360 298.842, 1264.477 347.442 C 1253.075 417.744, 1302.245 480.938, 1370.500 483.703 C 1391.460 484.552, 1410.042 480.309, 1426.662 470.879 C 1434.201 466.601, 1450.915 451.484, 1455.827 444.500 L 1457.937 441.500 1457.968 459.750 L 1458 478 1477.500 478 L 1497 478 1497 367.500 L 1497 257 1477.500 257 L 1458 257 1457.989 275.250 L 1457.978 293.500 1455.276 290 C 1440.750 271.186, 1420.446 258.133, 1398.485 253.490 C 1387.380 251.142, 1366.575 250.663, 1356.500 252.522 M 1769.437 252.497 C 1715.036 262.061, 1678.574 304.044, 1675.334 360.848 C 1673.454 393.824, 1684.802 426.284, 1705.931 448.364 C 1721.998 465.155, 1742.150 476.151, 1765.566 480.904 C 1812.677 490.466, 1857.870 475.984, 1884.403 442.821 C 1888.031 438.286, 1891 434.278, 1891 433.913 C 1891 433.166, 1859.425 414.974, 1858.254 415.047 C 1857.839 415.073, 1855.925 417.331, 1854 420.065 C 1841.499 437.822, 1816.132 448.200, 1789 446.658 C 1750.681 444.480, 1723.823 422.924, 1715.604 387.750 L 1714.962 385 1807.462 385 L 1899.962 385 1900.420 382.750 C 1902.544 372.326, 1901.243 351.136, 1897.598 336.779 C 1891.986 314.674, 1882.911 298.176, 1868 282.975 C 1853.310 267.998, 1838.722 259.431, 1819.206 254.321 C 1807.001 251.125, 1782.374 250.222, 1769.437 252.497 M 1644.075 254.087 C 1624.720 257.885, 1606.730 269.935, 1597.748 285.119 L 1594 291.454 1594 274.227 L 1594 257 1574 257 L 1554 257 1554 367.500 L 1554 478 1574 478 L 1594 478 1594 413.958 C 1594 341.892, 1594.105 340.580, 1601.021 326.371 C 1610.558 306.774, 1628.069 295.785, 1652.324 294.175 L 1662.500 293.500 1662.771 273.250 L 1663.041 253 1655.771 253.110 C 1651.772 253.170, 1646.509 253.610, 1644.075 254.087 M 926.040 258.250 C 926.061 258.938, 941.291 308.550, 959.883 368.500 L 993.686 477.500 1013.796 477.771 L 1033.907 478.041 1035.846 471.771 C 1046.942 435.893, 1084.398 318.327, 1084.914 317.757 C 1085.284 317.348, 1097.040 353.236, 1111.039 397.507 L 1136.492 478 1156.509 478 L 1176.526 478 1209.427 371.750 C 1227.522 313.313, 1242.910 263.578, 1243.622 261.230 L 1244.916 256.960 1224.295 257.230 L 1203.673 257.500 1179.921 339.832 C 1166.857 385.115, 1156.002 422.332, 1155.798 422.536 C 1155.593 422.740, 1143.926 385.690, 1129.871 340.203 L 1104.315 257.500 1085.224 257.229 L 1066.134 256.957 1063.460 265.729 C 1055.387 292.204, 1014.932 422.401, 1014.709 422.624 C 1014.564 422.769, 1003.668 385.563, 990.496 339.944 L 966.547 257 946.273 257 C 930.700 257, 926.009 257.290, 926.040 258.250 M 120.500 289.403 C 103.352 292.737, 91.881 298.886, 79.470 311.397 C 69.634 321.312, 64.154 330.339, 59.980 343.500 C 56.603 354.147, 56.070 374.518, 58.863 386.209 C 67.613 422.839, 97.106 446, 135 446 C 149.515 446, 158.848 443.817, 172 437.345 C 180.023 433.397, 182.906 431.258, 190.540 423.585 C 200.393 413.683, 205.959 404.511, 209.875 391.726 C 219.471 360.395, 209.706 325.893, 185.590 305.925 C 178.295 299.885, 163.969 292.665, 155 290.508 C 145.758 288.286, 129.008 287.749, 120.500 289.403 M 396 289.516 C 368.985 295.036, 348.884 313.066, 340.495 339.302 C 339.123 343.593, 338 347.980, 338 349.052 C 338 350.965, 339.312 351, 411.045 351 L 484.091 351 483.435 347.250 C 482.267 340.573, 477.954 328.655, 474.391 322.260 C 467.644 310.153, 455.268 299.084, 442.441 293.686 C 429.600 288.281, 410.457 286.562, 396 289.516 M 1774 289.502 C 1743.548 295.659, 1722.802 316.186, 1716.139 346.750 L 1715.213 351 1788.507 351 L 1861.802 351 1860.292 344.250 C 1856.888 329.030, 1848.270 313.813, 1837.824 304.577 C 1830.916 298.471, 1816.610 291.548, 1806.792 289.560 C 1797.622 287.704, 1783.021 287.678, 1774 289.502 M 749.557 291.096 C 727.875 296.420, 709.660 310.889, 699.949 330.500 C 684.849 360.996, 689.805 397.553, 712.313 421.698 C 743.602 455.264, 800.470 453.470, 829.521 418 C 835.452 410.759, 841.351 399.284, 844.200 389.443 C 846.166 382.655, 846.490 379.319, 846.430 366.500 C 846.365 352.515, 846.152 350.872, 843.276 342.220 C 835.860 319.905, 820.092 302.864, 798.965 294.330 C 784.982 288.682, 764.772 287.359, 749.557 291.096 M 1362.365 290.493 C 1347.982 293.621, 1335.771 300.317, 1324.965 311 C 1308.774 327.008, 1300.897 348.431, 1302.352 372.500 C 1303.079 384.523, 1304.927 391.853, 1309.916 402.500 C 1322.864 430.129, 1352.350 447.415, 1383.500 445.639 C 1396.542 444.895, 1404.381 442.862, 1416 437.210 C 1424.070 433.283, 1426.854 431.227, 1434.500 423.544 C 1444.692 413.302, 1448.980 406.657, 1453.072 394.761 C 1460.328 373.669, 1459.303 352.021, 1450.127 332.595 C 1437.033 304.872, 1411.071 288.878, 1379.500 289.087 C 1373.450 289.126, 1365.739 289.759, 1362.365 290.493" stroke="none" fill="#3c3c3c" fill-rule="evenodd"/></svg>