<?xml version="1.0" encoding="utf-8"?>
<!-- Generator: Adobe Illustrator 24.0.0, SVG Export Plug-In . SVG Version: 6.00 Build 0)  -->
<svg version="1.1" xmlns="http://www.w3.org/2000/svg" xmlns:xlink="http://www.w3.org/1999/xlink" x="0px" y="0px"
	 viewBox="0 0 711.5 132.5" style="enable-background:new 0 0 711.5 132.5;" xml:space="preserve">
<style type="text/css">
	.st0{fill:#EF473C;}
</style>
<g id="Layer_1">
	<g>
		<g>
			<path d="M151,118.8c11.5,0,19.8-5.3,24-12.2l12.3,7c-7.3,11.3-20,18.8-36.7,18.8c-26.8,0-44.7-18.8-44.7-43.9
				c0-24.7,17.7-43.9,43.7-43.9c25.2,0,41.5,20.7,41.5,44c0,2.2-0.2,4.3-0.5,6.5h-69.9C123.6,110.3,135.5,118.8,151,118.8z
				 M120.8,82.6h55.7c-2.5-16.5-14.3-24.2-26.8-24.2C134,58.4,123.1,68.1,120.8,82.6z"/>
			<path d="M207.8,0.5h14.5v129.8h-14.5V0.5z"/>
			<path d="M328.1,46.9v83.4h-14.5V116c-6.7,10.2-17.3,16.5-31.5,16.5c-23.2,0-42.2-19.2-42.2-43.9s19-43.9,42.2-43.9
				c14.2,0,24.8,6.3,31.5,16.5V46.9H328.1z M313.6,88.6c0-17-12.8-29.9-29.7-29.9c-16.7,0-29.5,12.8-29.5,29.9s12.8,29.9,29.5,29.9
				C300.7,118.5,313.6,105.6,313.6,88.6z"/>
			<path d="M463.5,46.9l-25.8,83.4h-14.8l-19.5-61.7l-19.5,61.7h-14.8l-25.8-83.4h15.2l18.3,63.4l19.7-63.4h14l19.7,63.5l18.3-63.5
				H463.5z"/>
			<path d="M558.7,46.9v83.4h-14.5V116c-6.7,10.2-17.3,16.5-31.5,16.5c-23.2,0-42.2-19.2-42.2-43.9s19-43.9,42.2-43.9
				c14.2,0,24.8,6.3,31.5,16.5V46.9H558.7z M544.2,88.6c0-17-12.8-29.9-29.7-29.9c-16.7,0-29.5,12.8-29.5,29.9s12.8,29.9,29.5,29.9
				C531.3,118.5,544.2,105.6,544.2,88.6z"/>
			<path d="M621.2,45.4v15.2c-12.5-0.5-26,5.8-26,25.5v44.2h-14.5V46.9h14.5v14C600.5,49.3,610.7,45.4,621.2,45.4z"/>
			<path d="M671.2,118.8c11.5,0,19.8-5.3,24-12.2l12.3,7c-7.3,11.3-20,18.8-36.7,18.8c-26.8,0-44.7-18.8-44.7-43.9
				c0-24.7,17.7-43.9,43.7-43.9c25.2,0,41.5,20.7,41.5,44c0,2.2-0.2,4.3-0.5,6.5h-69.9C643.9,110.3,655.7,118.8,671.2,118.8z
				 M641.1,82.6h55.7c-2.5-16.5-14.3-24.2-26.8-24.2C654.2,58.4,643.4,68.1,641.1,82.6z"/>
		</g>
		<path d="M88.6,0.5c0,0,0,68.9,0,88.1c0,17.9-13.5,43.9-46,43.9c-23.2,0-42.2-19.2-42.2-43.9s19-43.9,42.2-43.9
			c14.2,0,24.8,6.3,31.5,16.5V0.5H88.6z M74.1,88.6c0-17-12.8-29.9-29.7-29.9c-16.7,0-29.5,12.8-29.5,29.9s12.8,29.9,29.5,29.9
			C61.3,118.5,74.1,105.6,74.1,88.6z"/>
		<path class="st0" d="M74.1,88.6c0-17-12.8-29.9-29.7-29.9c-16.7,0-29.5,12.8-29.5,29.9s12.8,29.9,29.5,29.9
			C61.3,118.5,74.1,105.6,74.1,88.6z"/>
	</g>
</g>
<g id="Layer_2">
</g>
</svg>
